<svg width="21" height="21" viewBox="0 0 21 21" fill="none" xmlns="http://www.w3.org/2000/svg">
<path d="M10.1211 0.917969C4.60709 0.917969 0.121094 5.40397 0.121094 10.918C0.121094 16.432 4.60709 20.918 10.1211 20.918C15.6351 20.918 20.1211 16.432 20.1211 10.918C20.1211 5.40397 15.6351 0.917969 10.1211 0.917969ZM8.12209 15.331L5.11655 12.3319C4.72579 11.942 4.725 11.3092 5.11478 10.9183C5.50481 10.5272 6.13811 10.5264 6.52902 10.9167L8.12009 12.505L12.7071 7.91797C13.0976 7.5275 13.7306 7.5275 14.1211 7.91797C14.5116 8.30843 14.5116 8.9415 14.1211 9.33197L8.12209 15.331Z" fill="#2FAB73"/>
</svg>
