<svg width="34" height="35" viewBox="0 0 34 35" fill="none" xmlns="http://www.w3.org/2000/svg">
<path d="M22.2492 17.7492C22.2492 19.1416 21.6961 20.477 20.7115 21.4615C19.727 22.4461 18.3916 22.9992 16.9992 22.9992C15.6068 22.9992 14.2715 22.4461 13.2869 21.4615C12.3023 20.477 11.7492 19.1416 11.7492 17.7492C11.7492 17.45 11.7807 17.1577 11.835 16.8742H9.99922V23.869C9.99922 24.3555 10.393 24.7492 10.8795 24.7492H23.1207C23.3539 24.7488 23.5773 24.6558 23.742 24.4908C23.9067 24.3258 23.9992 24.1021 23.9992 23.869V16.8742H22.1635C22.2177 17.1577 22.2492 17.45 22.2492 17.7492ZM16.9992 21.2492C17.459 21.2491 17.9142 21.1584 18.3389 20.9824C18.7636 20.8064 19.1495 20.5484 19.4745 20.2232C19.7995 19.8981 20.0572 19.5121 20.2331 19.0873C20.4089 18.6625 20.4993 18.2072 20.4992 17.7475C20.4991 17.2877 20.4084 16.8325 20.2324 16.4078C20.0564 15.9831 19.7984 15.5972 19.4732 15.2722C19.1481 14.9472 18.7621 14.6895 18.3373 14.5136C17.9125 14.3378 17.4572 14.2474 16.9975 14.2475C16.069 14.2477 15.1786 14.6168 14.5222 15.2735C13.8659 15.9302 13.4972 16.8207 13.4975 17.7492C13.4977 18.6777 13.8668 19.5681 14.5235 20.2245C15.1802 20.8808 16.0707 21.2495 16.9992 21.2492ZM21.1992 14.0742H23.2975C23.4369 14.0742 23.5706 14.019 23.6693 13.9206C23.7681 13.8222 23.8238 13.6886 23.8242 13.5492V11.451C23.8242 11.3113 23.7687 11.1773 23.6699 11.0785C23.5712 10.9797 23.4372 10.9242 23.2975 10.9242H21.1992C21.0595 10.9242 20.9255 10.9797 20.8268 11.0785C20.728 11.1773 20.6725 11.3113 20.6725 11.451V13.5492C20.6742 13.838 20.9105 14.0742 21.1992 14.0742ZM16.9992 0.949219C12.5436 0.949219 8.27044 2.71921 5.11983 5.86983C1.96921 9.02044 0.199219 13.2936 0.199219 17.7492C0.199219 22.2049 1.96921 26.478 5.11983 29.6286C8.27044 32.7792 12.5436 34.5492 16.9992 34.5492C19.2054 34.5492 21.39 34.1147 23.4283 33.2704C25.4666 32.4261 27.3186 31.1886 28.8786 29.6286C30.4386 28.0686 31.6761 26.2166 32.5204 24.1783C33.3647 22.14 33.7992 19.9554 33.7992 17.7492C33.7992 15.543 33.3647 13.3584 32.5204 11.3201C31.6761 9.28187 30.4386 7.42985 28.8786 5.86983C27.3186 4.3098 25.4666 3.07232 23.4283 2.22804C21.39 1.38376 19.2054 0.949219 16.9992 0.949219ZM25.7492 24.555C25.7492 25.6242 24.8742 26.4992 23.805 26.4992H10.1935C9.12422 26.4992 8.24922 25.6242 8.24922 24.555V10.9435C8.24922 9.87422 9.12422 8.99922 10.1935 8.99922H23.805C24.8742 8.99922 25.7492 9.87422 25.7492 10.9435V24.555Z" fill="white"/>
</svg>
