<svg width="70" height="71" viewBox="0 0 70 71" fill="none" xmlns="http://www.w3.org/2000/svg">
<g filter="url(#filter0_d_89101_1017)">
<circle cx="34.9992" cy="22.7492" r="16.7999" fill="#F53838"/>
</g>
<path d="M40.2492 22.7492C40.2492 24.1416 39.6961 25.477 38.7115 26.4615C37.727 27.4461 36.3916 27.9992 34.9992 27.9992C33.6068 27.9992 32.2715 27.4461 31.2869 26.4615C30.3023 25.477 29.7492 24.1416 29.7492 22.7492C29.7492 22.45 29.7807 22.1577 29.835 21.8742H27.9992V28.869C27.9992 29.3555 28.393 29.7492 28.8795 29.7492H41.1207C41.3539 29.7488 41.5773 29.6558 41.742 29.4908C41.9067 29.3258 41.9992 29.1021 41.9992 28.869V21.8742H40.1635C40.2177 22.1577 40.2492 22.45 40.2492 22.7492ZM34.9992 26.2492C35.459 26.2491 35.9142 26.1584 36.3389 25.9824C36.7636 25.8064 37.1495 25.5484 37.4745 25.2232C37.7995 24.8981 38.0572 24.5121 38.2331 24.0873C38.4089 23.6625 38.4993 23.2072 38.4992 22.7475C38.4991 22.2877 38.4084 21.8325 38.2324 21.4078C38.0564 20.9831 37.7984 20.5972 37.4732 20.2722C37.1481 19.9472 36.7621 19.6895 36.3373 19.5136C35.9125 19.3378 35.4572 19.2474 34.9975 19.2475C34.069 19.2477 33.1786 19.6168 32.5222 20.2735C31.8659 20.9302 31.4972 21.8207 31.4975 22.7492C31.4977 23.6777 31.8668 24.5681 32.5235 25.2245C33.1802 25.8808 34.0707 26.2495 34.9992 26.2492ZM39.1992 19.0742H41.2975C41.4369 19.0742 41.5706 19.019 41.6693 18.9206C41.7681 18.8222 41.8238 18.6886 41.8242 18.5492V16.451C41.8242 16.3113 41.7687 16.1773 41.6699 16.0785C41.5712 15.9797 41.4372 15.9242 41.2975 15.9242H39.1992C39.0595 15.9242 38.9255 15.9797 38.8268 16.0785C38.728 16.1773 38.6725 16.3113 38.6725 16.451V18.5492C38.6742 18.838 38.9105 19.0742 39.1992 19.0742ZM34.9992 5.94922C30.5436 5.94922 26.2704 7.71921 23.1198 10.8698C19.9692 14.0204 18.1992 18.2936 18.1992 22.7492C18.1992 27.2049 19.9692 31.478 23.1198 34.6286C26.2704 37.7792 30.5436 39.5492 34.9992 39.5492C37.2054 39.5492 39.39 39.1147 41.4283 38.2704C43.4666 37.4261 45.3186 36.1886 46.8786 34.6286C48.4386 33.0686 49.6761 31.2166 50.5204 29.1783C51.3647 27.14 51.7992 24.9554 51.7992 22.7492C51.7992 20.543 51.3647 18.3584 50.5204 16.3201C49.6761 14.2819 48.4386 12.4298 46.8786 10.8698C45.3186 9.3098 43.4666 8.07232 41.4283 7.22804C39.39 6.38376 37.2054 5.94922 34.9992 5.94922ZM43.7492 29.555C43.7492 30.6242 42.8742 31.4992 41.805 31.4992H28.1935C27.1242 31.4992 26.2492 30.6242 26.2492 29.555V15.9435C26.2492 14.8742 27.1242 13.9992 28.1935 13.9992H41.805C42.8742 13.9992 43.7492 14.8742 43.7492 15.9435V29.555Z" fill="white"/>
<defs>
<filter id="filter0_d_89101_1017" x="0.199219" y="0.949219" width="69.5996" height="69.5996" filterUnits="userSpaceOnUse" color-interpolation-filters="sRGB">
<feFlood flood-opacity="0" result="BackgroundImageFix"/>
<feColorMatrix in="SourceAlpha" type="matrix" values="0 0 0 0 0 0 0 0 0 0 0 0 0 0 0 0 0 0 127 0" result="hardAlpha"/>
<feOffset dy="13"/>
<feGaussianBlur stdDeviation="9"/>
<feColorMatrix type="matrix" values="0 0 0 0 0.0658854 0 0 0 0 0.0730469 0 0 0 0 0.1375 0 0 0 0.08 0"/>
<feBlend mode="normal" in2="BackgroundImageFix" result="effect1_dropShadow_89101_1017"/>
<feBlend mode="normal" in="SourceGraphic" in2="effect1_dropShadow_89101_1017" result="shape"/>
</filter>
</defs>
</svg>
