<svg width="25" height="25" viewBox="0 0 25 25" fill="none" xmlns="http://www.w3.org/2000/svg">
<path d="M11.4481 17.6493C11.3169 17.6496 11.1869 17.6239 11.0655 17.5738C10.9442 17.5237 10.834 17.4501 10.7411 17.3573L6.49915 13.1143C6.40357 13.0221 6.32731 12.9119 6.27482 12.7899C6.22233 12.6679 6.19465 12.5367 6.1934 12.4039C6.19216 12.2712 6.21737 12.1395 6.26756 12.0165C6.31775 11.8936 6.39193 11.7819 6.48575 11.688C6.57958 11.594 6.69118 11.5197 6.81404 11.4693C6.9369 11.4189 7.06856 11.3935 7.20133 11.3946C7.33411 11.3956 7.46535 11.4231 7.58739 11.4755C7.70943 11.5278 7.81983 11.6039 7.91215 11.6993L11.4471 15.2343L17.8121 8.87133C17.9997 8.68369 18.254 8.57822 18.5193 8.57813C18.7846 8.57803 19.039 8.68332 19.2266 8.87083C19.4143 9.05834 19.5198 9.3127 19.5198 9.57797C19.5199 9.84324 19.4147 10.0977 19.2271 10.2853L12.1551 17.3573C12.0623 17.4501 11.9521 17.5237 11.8308 17.5738C11.7094 17.6239 11.5794 17.6496 11.4481 17.6493Z" fill="#2FAB73"/>
</svg>
