<svg width="35" height="37" viewBox="0 0 35 37" fill="none" xmlns="http://www.w3.org/2000/svg">
<path d="M31.1473 14.0169L31.1255 13.9951C31.1238 13.9939 31.1224 13.9923 31.1215 13.9904L17.5006 0.369141L3.87983 13.99C3.87826 13.9916 3.8758 13.9947 3.8758 13.9947L3.85333 14.0165C1.77053 16.111 0.447586 18.8416 0.0948177 21.7743C-0.25795 24.7071 0.379698 27.6735 1.90639 30.2023C3.43309 32.731 5.76122 34.6769 8.52069 35.7304C11.2802 36.7839 14.3126 36.8848 17.136 36.0169C17.3735 35.9442 17.6275 35.9442 17.8651 36.0169C20.6882 36.8845 23.7205 36.7835 26.4798 35.7298C29.2391 34.6762 31.567 32.7305 33.0936 30.2019C34.6202 27.6734 35.2579 24.7071 34.9053 21.7745C34.5526 18.842 33.2299 16.1114 31.1473 14.0169ZM8.7232 22.999C8.65689 23.0653 8.6043 23.1441 8.56844 23.2306C8.53257 23.3171 8.5141 23.41 8.51412 23.5037C8.53835 25.9078 9.21776 28.2596 10.4792 30.3062C10.5079 30.3526 10.5211 30.407 10.517 30.4613C10.513 30.5157 10.4918 30.5674 10.4566 30.6091C10.4213 30.6508 10.3738 30.6801 10.3209 30.6931C10.2679 30.7062 10.2122 30.7021 10.1616 30.6815C9.21332 30.2826 8.35182 29.7028 7.62531 28.9745C6.13646 27.4854 5.29946 25.4661 5.2981 23.3604C5.29675 21.2546 6.13117 19.2344 7.61812 17.7434L17.5006 7.86187L27.3826 17.7434C28.8698 19.2342 29.7045 21.2545 29.703 23.3604C29.7018 25.4661 28.8647 27.4854 27.3757 28.9745C26.6492 29.7028 25.7877 30.2826 24.8396 30.6815C24.7889 30.7021 24.7332 30.7062 24.6802 30.6931C24.6273 30.6801 24.5798 30.6506 24.5445 30.6091C24.5093 30.5674 24.488 30.5157 24.484 30.4612C24.4799 30.4068 24.4931 30.3525 24.5218 30.306C25.7835 28.2596 26.4633 25.9078 26.4879 23.5037C26.4879 23.41 26.4692 23.3171 26.4332 23.2304C26.3971 23.1437 26.3444 23.0651 26.2779 22.9988L21.6037 18.0409C21.5571 18.002 21.4985 17.9807 21.4378 17.9807C21.3773 17.9807 21.3186 18.002 21.2721 18.0409C21.2255 18.0796 21.1942 18.1336 21.1833 18.1932C21.1724 18.2528 21.1828 18.3142 21.2127 18.3669C23.0281 21.6521 21.467 26.3708 18.8637 28.9745L18.85 28.9882C18.4907 29.3437 18.0056 29.5429 17.5002 29.5427C16.9948 29.5426 16.5098 29.3429 16.1508 28.9873L16.1382 28.9745C13.5339 26.3708 11.9736 21.6526 13.7893 18.3677C13.8192 18.3149 13.8296 18.2535 13.8187 18.1939C13.8079 18.1343 13.7764 18.0803 13.7299 18.0416C13.6834 18.0027 13.6247 17.9814 13.5642 17.9814C13.5036 17.9814 13.4449 18.0027 13.3984 18.0416L8.7232 22.999Z" fill="#F53838"/>
</svg>
