<svg width="35" height="35" viewBox="0 0 35 35" fill="none" xmlns="http://www.w3.org/2000/svg">
<path d="M17.3996 0.949219C8.12111 0.949219 0.599609 8.47072 0.599609 17.7492C0.599609 27.0277 8.12111 34.5492 17.3996 34.5492C26.6781 34.5492 34.1996 27.0277 34.1996 17.7492C34.1996 8.47072 26.6781 0.949219 17.3996 0.949219ZM24.2334 14.7112C24.2404 14.8547 24.2421 14.9982 24.2421 15.1382C24.2421 19.5132 20.9154 24.555 14.8289 24.555C13.0304 24.558 11.2693 24.0414 9.75736 23.0675C10.0146 23.099 10.2789 23.1112 10.5466 23.1112C12.0971 23.1112 13.5234 22.5845 14.6556 21.6955C13.9656 21.6819 13.297 21.4534 12.7431 21.0419C12.1891 20.6303 11.7773 20.0562 11.5651 19.3995C12.0606 19.4937 12.5711 19.4739 13.0579 19.3417C12.3089 19.1903 11.6355 18.7845 11.1516 18.1931C10.6677 17.6018 10.4033 16.8613 10.4031 16.0972V16.057C10.8494 16.3037 11.3604 16.4542 11.9029 16.4717C11.2008 16.0043 10.7037 15.2864 10.5134 14.4647C10.3231 13.643 10.454 12.7797 10.8791 12.0512C11.7103 13.0732 12.7468 13.9093 13.9216 14.5053C15.0964 15.1013 16.3833 15.4439 17.6989 15.511C17.5316 14.801 17.6036 14.0557 17.9036 13.3909C18.2037 12.726 18.7149 12.179 19.358 11.8347C20.001 11.4904 20.7398 11.3682 21.4594 11.4871C22.1791 11.6061 22.8393 11.9594 23.3374 12.4922C24.0779 12.3457 24.7881 12.0741 25.4374 11.689C25.1905 12.4557 24.6738 13.1068 23.9831 13.5212C24.6391 13.4422 25.2796 13.2659 25.8836 12.998C25.44 13.6628 24.8811 14.243 24.2334 14.7112Z" fill="white"/>
</svg>
